<?xml version="1.0" encoding="UTF-8"?>
<!DOCTYPE svg PUBLIC "-//W3C//DTD SVG 1.1//EN" "http://www.w3.org/Graphics/SVG/1.1/DTD/svg11.dtd">
<!-- Creator: CorelDRAW X8 -->
<svg xmlns="http://www.w3.org/2000/svg" xml:space="preserve" width="10.8546in" height="3.93385in" version="1.1" style="shape-rendering:geometricPrecision; text-rendering:geometricPrecision; image-rendering:optimizeQuality; fill-rule:evenodd; clip-rule:evenodd"
viewBox="0 0 10855 3934"
 xmlns:xlink="http://www.w3.org/1999/xlink">
 <defs>
  <style type="text/css">
   <![CDATA[
    .fil0 {fill:#FEFEFE;fill-rule:nonzero}
   ]]>
  </style>
 </defs>
 <g id="Layer_x0020_1">
  <metadata id="CorelCorpID_0Corel-Layer"/>
  <g id="_2854203277024">
   <path class="fil0" d="M779 1300l0 128 -252 0 0 569 -174 0 0 -569 -252 0 0 -128 678 0zm800 0l0 697 -174 0 0 -283 -346 0 0 283 -174 0 0 -697 174 0 0 279 346 0 0 -279 174 0zm671 569l0 128 -514 0 0 -697 507 0 0 128 -333 0 0 146 318 0 0 128 -318 0 0 167 340 0z"/>
   <path class="fil0" d="M2705 3049c-37,-179 -56,-357 -56,-534 0,-219 24,-420 73,-604 48,-184 109,-353 181,-505 73,-152 150,-288 230,-409 81,-120 155,-226 222,-315 25,-33 48,-64 69,-92 21,-28 39,-55 55,-80 65,-102 97,-164 97,-187l-72 0c-26,0 -55,4 -89,12 -33,9 -72,21 -116,38 -96,33 -204,68 -323,104 -119,37 -244,73 -377,108 -132,36 -269,69 -408,102 -140,32 -278,60 -415,84 -137,24 -270,43 -398,56 -128,14 -246,20 -354,20 -63,0 -133,-4 -211,-14 -79,-9 -157,-26 -236,-50 -78,-24 -153,-55 -226,-95 -73,-39 -136,-89 -190,-148 -55,-60 -97,-129 -127,-209 -30,-81 -40,-175 -31,-283l7 -19c46,113 166,201 358,266 193,64 453,93 780,87 65,0 160,-8 285,-25 126,-17 267,-37 422,-62 156,-25 320,-52 492,-82 171,-29 336,-58 492,-87 150,-27 291,-52 422,-75 132,-23 234,-39 308,-50 35,-4 76,3 123,22 47,19 95,44 142,75 47,31 93,67 137,106 43,40 80,79 110,117 30,39 51,75 62,108 12,33 10,58 -6,75 -54,56 -113,133 -180,231 -67,98 -136,208 -206,331 -70,123 -140,255 -209,395 -70,141 -132,281 -189,420 -56,140 -104,275 -142,408 -38,132 -61,250 -71,354 0,17 0,37 -1,61 -1,24 -2,42 -2,55 0,66 3,113 10,140 7,27 15,41 25,41 18,0 35,-23 50,-69 15,-46 27,-99 36,-159 16,-108 55,-233 118,-373 62,-141 137,-287 226,-439 89,-152 188,-306 298,-461 109,-155 220,-303 333,-445 113,-141 223,-271 329,-390 106,-119 202,-217 287,-294 53,-41 105,-62 156,-62 67,0 137,15 211,45 73,30 139,67 195,111 57,44 99,90 128,139 29,49 32,93 9,133 -26,48 -47,88 -64,121 -18,34 -32,66 -44,97 -11,32 -22,65 -32,100 -11,36 -22,78 -33,128l-59 166c-28,79 -59,172 -95,278 -36,106 -72,218 -109,335 -37,118 -73,238 -109,361 -36,123 -67,243 -95,359 -28,117 -50,226 -68,327 -17,101 -26,188 -26,263 0,48 5,89 14,122 16,79 51,119 104,119 30,0 57,-6 81,-19 25,-12 53,-27 85,-44 12,-4 22,-9 31,-15 9,-6 20,-13 31,-19 219,-117 446,-198 680,-244 234,-45 473,-68 718,-68 286,0 570,21 854,62 284,42 557,86 820,131 210,38 407,71 593,99 186,28 354,42 507,42 166,0 306,-20 420,-61 114,-41 193,-113 237,-217 37,37 66,84 88,139 22,55 33,116 33,183 0,77 -21,149 -64,215 -43,67 -110,112 -202,134 -51,13 -103,22 -156,27 -53,5 -106,8 -159,8 -76,0 -162,-5 -256,-14 -95,-10 -194,-23 -298,-39 -103,-17 -209,-36 -316,-58 -107,-22 -213,-44 -317,-67 -302,-67 -597,-122 -887,-166 -289,-43 -559,-65 -811,-65 -339,0 -648,40 -927,121 -279,82 -523,216 -733,403l0 -12c-14,21 -43,29 -88,25 -45,-4 -93,-16 -144,-35 -51,-18 -98,-40 -142,-65 -43,-25 -70,-49 -79,-72l0 3c-69,-131 -118,-262 -145,-392 -28,-130 -42,-261 -42,-392 0,-143 12,-284 36,-423 25,-138 53,-279 85,-423 5,-17 19,-58 43,-123 25,-66 54,-146 89,-241 34,-94 72,-198 114,-309 41,-111 82,-222 122,-331 41,-109 79,-212 115,-308 35,-95 65,-173 88,-234 11,-25 19,-43 24,-56 5,-12 7,-21 7,-25 0,-8 -5,-11 -14,-9 -9,2 -20,7 -33,17 -12,9 -26,20 -40,33 -13,12 -25,24 -34,34 -155,181 -316,374 -484,579 -169,205 -327,422 -474,650 -148,228 -276,466 -386,715 -109,249 -181,507 -216,776 -12,19 -49,22 -112,9 -64,-12 -135,-32 -213,-59 -79,-27 -152,-58 -222,-92 -69,-34 -114,-63 -134,-86l0 -25zm3130 -478c-3,0 -4,1 -4,2 0,1 -2,1 -7,1l0 32c5,85 42,128 111,128 42,0 83,-13 125,-38l0 3c60,-39 121,-88 185,-145 63,-57 114,-106 154,-145 66,-73 126,-144 178,-214 52,-70 97,-137 136,-201 16,-17 35,-22 57,-15 22,8 42,22 59,44 17,22 30,48 38,77 8,29 8,56 -1,81 -42,62 -95,135 -160,217 -64,82 -136,161 -214,236 -78,75 -161,140 -247,196 -87,57 -173,90 -258,100 -58,7 -115,0 -173,-18 -58,-19 -109,-47 -156,-83 -46,-37 -84,-78 -115,-123 -32,-46 -48,-92 -51,-138 -4,-56 0,-121 14,-193 14,-73 34,-148 61,-225 26,-77 60,-153 100,-228 40,-75 87,-144 138,-206 52,-63 108,-116 168,-161 60,-45 125,-75 194,-89 37,-6 76,-5 117,4 42,10 82,24 122,44 39,20 74,44 105,74 31,29 56,59 74,90 19,46 21,91 7,134 -14,44 -27,82 -41,113 -35,69 -76,136 -123,203 -47,66 -101,129 -161,187 -60,58 -126,109 -197,153 -71,44 -149,77 -232,100l-3 3zm342 -696c-4,8 -10,16 -17,23 -7,8 -13,16 -17,27 -33,50 -70,107 -111,170 -42,64 -77,125 -107,186 83,-42 155,-90 216,-145 61,-56 111,-113 150,-174l0 13c12,-23 22,-42 31,-56 10,-15 18,-27 25,-38l0 6 27 -43c28,-38 42,-59 42,-63 0,-19 -9,-29 -28,-31 -18,-2 -40,1 -66,11 -25,9 -51,24 -79,44 -28,19 -50,43 -66,70zm623 415c-19,13 -38,15 -57,8 -20,-7 -38,-20 -54,-39 -16,-19 -28,-42 -36,-69 -8,-27 -9,-53 -2,-78 81,-125 162,-244 244,-359 82,-114 172,-223 271,-325 49,-50 92,-75 128,-75 37,0 71,10 102,28 32,19 56,43 73,71 17,28 26,59 26,93 0,35 -12,69 -35,102l0 -3c-32,50 -54,98 -65,145 -12,47 -18,93 -18,139 0,37 2,75 6,114 3,38 7,76 12,114 4,35 8,69 10,100 2,31 4,64 4,100 94,-23 176,-60 245,-110 69,-49 141,-113 215,-190 18,-17 39,-22 62,-16 23,7 43,20 60,41 18,21 31,45 40,72 9,27 9,53 0,78 -34,56 -75,103 -123,142 -47,38 -99,71 -155,98 -57,27 -116,49 -177,64 -61,16 -121,29 -181,39l3 -50c-18,80 -48,151 -90,216 -41,64 -106,118 -193,159 -81,36 -148,53 -201,53 -65,0 -114,-21 -147,-62 -33,-42 -50,-92 -50,-150 0,-33 4,-65 14,-94 9,-29 23,-53 41,-72l0 3c51,-49 104,-85 159,-107 56,-22 113,-40 173,-55 -4,-33 -10,-68 -17,-105 -7,-36 -14,-72 -21,-107l-21 -116c-2,-10 -4,-14 -5,-12 -1,2 0,-2 2,-13l-55 50c-33,29 -64,57 -96,85 -31,27 -61,55 -91,84l0 9zm221 400c14,-13 24,-22 31,-28 7,-6 14,-16 21,-28l-3 3c-86,25 -149,51 -191,78 -41,27 -62,49 -62,65 0,23 19,29 55,18 37,-12 87,-48 149,-108zm1259 -1583c-41,-7 -74,-10 -98,-11 -25,-1 -44,-2 -59,-2 -15,0 -27,-1 -35,-5 -8,-3 -15,-9 -22,-20 -12,-12 -11,-26 3,-42 14,-16 32,-31 56,-45 23,-15 48,-27 76,-36 27,-10 50,-14 69,-14l76 0c7,-6 15,-21 26,-42 10,-22 21,-48 31,-78 10,-31 21,-63 31,-97 10,-35 19,-67 26,-97 7,-30 11,-56 12,-78 1,-22 0,-37 -5,-45l0 18c-25,-37 -36,-67 -31,-89 4,-22 29,-38 72,-48 37,-4 85,9 142,39 58,30 112,67 163,111 51,43 90,89 119,137 29,48 32,87 9,116l0 -16 -21 59 -73 132c35,2 96,6 184,14 87,7 191,13 309,18 119,6 247,9 384,10 137,1 275,-3 412,-13 137,-9 267,-26 391,-50 123,-24 230,-57 320,-101 25,135 -10,231 -106,289 -96,57 -244,93 -444,107 -33,3 -85,5 -156,7 -71,2 -154,3 -247,3 -94,0 -194,-1 -301,-3 -107,-2 -214,-6 -318,-10 -105,-4 -204,-10 -298,-17 -93,-7 -172,-17 -237,-30 -32,53 -70,119 -112,200 -43,82 -88,170 -135,266 -47,96 -94,193 -138,293 -45,100 -87,195 -125,284 -38,90 -70,170 -97,239 -26,70 -43,123 -50,158 2,35 14,66 35,91 20,25 46,37 76,37 37,0 73,-9 109,-26 35,-18 64,-45 84,-80 37,-58 76,-119 116,-181 41,-63 84,-125 130,-188 30,-41 62,-88 97,-139 34,-51 67,-97 97,-138 13,-15 32,-16 55,-4 23,13 45,31 66,55 20,24 36,49 46,77 11,27 10,47 -1,62 -40,50 -75,94 -106,133 -31,38 -59,75 -85,111 -25,33 -51,66 -77,100 -27,33 -52,65 -76,96 -25,32 -48,60 -70,86 -22,26 -41,49 -57,67 -37,38 -81,72 -133,103 -52,32 -97,51 -137,60 -32,6 -69,2 -110,-13 -42,-14 -84,-36 -126,-64 -43,-28 -83,-63 -120,-104 -37,-42 -64,-88 -83,-138l0 3c-18,-39 -27,-99 -27,-178 0,-75 11,-155 32,-242 22,-86 51,-176 85,-268 35,-93 74,-188 118,-284 44,-97 89,-194 135,-289l0 3c18,-44 39,-87 62,-130 23,-42 44,-86 62,-129z"/>
  </g>
 </g>
</svg>
